<svg width="30" height="30" viewBox="0 0 30 30" fill="none" xmlns="http://www.w3.org/2000/svg">
<path d="M15 6.8758L14.3245 7.52592C14.3287 7.53027 14.333 7.53457 14.3372 7.53884L15 6.8758ZM8.75076 20.5261C8.35097 20.1971 7.76016 20.2545 7.43114 20.6543C7.10211 21.054 7.15947 21.6449 7.55926 21.9739L8.75076 20.5261ZM2.92749 16.7644C3.17592 17.2186 3.74559 17.3855 4.19985 17.137C4.65412 16.8885 4.82096 16.3189 4.57251 15.8646L2.92749 16.7644ZM16.8372 10.0379C17.2034 10.404 17.797 10.4039 18.163 10.0377C18.5291 9.67151 18.529 9.07791 18.1627 8.71186L16.8372 10.0379ZM3.4375 11.4214C3.4375 8.7328 4.95671 6.47816 7.03045 5.53025C9.04509 4.60936 11.7521 4.85324 14.3245 7.52592L15.6755 6.22567C12.6231 3.05441 9.08011 2.53175 6.25095 3.82496C3.48089 5.09116 1.5625 8.0313 1.5625 11.4214H3.4375ZM10.6218 24.3749C11.2621 24.8796 11.9494 25.4179 12.646 25.8249C13.3424 26.2318 14.137 26.5625 15 26.5625V24.6875C14.613 24.6875 14.1576 24.5366 13.592 24.206C13.0266 23.8756 12.4401 23.4208 11.7826 22.9024L10.6218 24.3749ZM19.3782 24.3749C21.1615 22.969 23.441 21.3583 25.2291 19.3448C27.0494 17.2951 28.4375 14.7533 28.4375 11.4214H26.5625C26.5625 14.1681 25.4385 16.2853 23.8271 18.0998C22.1836 19.9504 20.112 21.4089 18.2175 22.9024L19.3782 24.3749ZM28.4375 11.4214C28.4375 8.0313 26.5191 5.09116 23.749 3.82496C20.9199 2.53175 17.3769 3.05441 14.3245 6.22567L15.6755 7.52592C18.2479 4.85324 20.9549 4.60936 22.9695 5.53025C25.0432 6.47816 26.5625 8.7328 26.5625 11.4214H28.4375ZM18.2175 22.9024C17.5599 23.4208 16.9734 23.8756 16.408 24.206C15.8424 24.5366 15.387 24.6875 15 24.6875V26.5625C15.863 26.5625 16.6576 26.2318 17.354 25.8249C18.0506 25.4179 18.7379 24.8796 19.3782 24.3749L18.2175 22.9024ZM11.7826 22.9024C10.7877 22.1181 9.77661 21.3704 8.75076 20.5261L7.55926 21.9739C8.5971 22.828 9.6934 23.643 10.6218 24.3749L11.7826 22.9024ZM4.57251 15.8646C3.871 14.582 3.4375 13.1291 3.4375 11.4214H1.5625C1.5625 13.4683 2.08744 15.2284 2.92749 16.7644L4.57251 15.8646ZM14.3372 7.53884L16.8372 10.0379L18.1627 8.71186L15.6627 6.21277L14.3372 7.53884Z" fill="#DD2D4A"/>
</svg>
